<svg id="Layer_1" data-name="Layer 1" xmlns="http://www.w3.org/2000/svg" viewBox="0 0 226.9 233.7"><defs><style>.cls-1{fill:#636363;}</style></defs><title>clock</title><path class="cls-1" d="M105.5,22.7V6.4H99.6V4.3a15,15,0,0,0,2.2-.2,4.79,4.79,0,0,0,2-.7,4.71,4.71,0,0,0,1.5-1.3,4.85,4.85,0,0,0,.8-2.1h2.1V22.7Zm8.6-17.9a6.77,6.77,0,0,1,1.4-2.5A6.14,6.14,0,0,1,117.9.6a7.94,7.94,0,0,1,3.2-.6,8.63,8.63,0,0,1,2.8.4,8.36,8.36,0,0,1,2.3,1.2,6.18,6.18,0,0,1,1.5,2,6.09,6.09,0,0,1,.6,2.8,7.63,7.63,0,0,1-.5,2.7,7.19,7.19,0,0,1-1.2,2.1,6.9,6.9,0,0,1-1.8,1.6,24.26,24.26,0,0,1-2,1.4,23.92,23.92,0,0,0-2.1,1.3c-.7.5-1.3.9-1.9,1.3a10.61,10.61,0,0,0-1.5,1.5,4.06,4.06,0,0,0-.8,1.9h11.6v2.4H113.3a10.74,10.74,0,0,1,.7-3.4,10.1,10.1,0,0,1,1.4-2.5,12.1,12.1,0,0,1,2-1.9c.7-.5,1.5-1,2.3-1.5,1-.6,1.8-1.1,2.5-1.6a14.28,14.28,0,0,0,1.8-1.5,6.19,6.19,0,0,0,1.1-1.7,4.64,4.64,0,0,0,.4-2.1,3.29,3.29,0,0,0-.4-1.7,3.81,3.81,0,0,0-.9-1.3,3.92,3.92,0,0,0-1.4-.8,4.67,4.67,0,0,0-1.7-.3,3.94,3.94,0,0,0-2,.5,4.36,4.36,0,0,0-1.4,1.3,4.94,4.94,0,0,0-.8,1.8,6.8,6.8,0,0,0-.2,2H114A5.46,5.46,0,0,1,114.1,4.8Zm52.4,33.4V21.9h-5.9V19.7a15,15,0,0,0,2.2-.2,4.79,4.79,0,0,0,2-.7,4.71,4.71,0,0,0,1.5-1.3,4.85,4.85,0,0,0,.8-2.1h2.1V38.1h-2.7Zm32.4,21a6.77,6.77,0,0,1,1.4-2.5,6.14,6.14,0,0,1,2.4-1.7,7.94,7.94,0,0,1,3.2-.6,8.63,8.63,0,0,1,2.8.4A8.36,8.36,0,0,1,211,56a6.18,6.18,0,0,1,1.5,2,6.09,6.09,0,0,1,.6,2.8,7.63,7.63,0,0,1-.5,2.7,7.19,7.19,0,0,1-1.2,2.1,6.9,6.9,0,0,1-1.8,1.6,24.26,24.26,0,0,1-2,1.4,23.92,23.92,0,0,0-2.1,1.3c-.7.5-1.3.9-1.9,1.3a10.61,10.61,0,0,0-1.5,1.5,4.06,4.06,0,0,0-.8,1.9h11.6V77H198a10.74,10.74,0,0,1,.7-3.4,10.1,10.1,0,0,1,1.4-2.5,12.1,12.1,0,0,1,2-1.9c.7-.5,1.5-1,2.3-1.5,1-.6,1.8-1.1,2.5-1.6a14.28,14.28,0,0,0,1.8-1.5,6.19,6.19,0,0,0,1.1-1.7,4.64,4.64,0,0,0,.4-2.1,3.29,3.29,0,0,0-.4-1.7,3.81,3.81,0,0,0-.9-1.3,3.92,3.92,0,0,0-1.4-.8,4.67,4.67,0,0,0-1.7-.3,3.94,3.94,0,0,0-2,.5,4.36,4.36,0,0,0-1.4,1.3,4.94,4.94,0,0,0-.8,1.8,6.8,6.8,0,0,0-.2,2h-2.7a6.46,6.46,0,0,1,.2-3.1Zm18.7,55.9h.9a7.77,7.77,0,0,0,1.6-.2,3.69,3.69,0,0,0,1.4-.7,2.73,2.73,0,0,0,.9-1.2,4.19,4.19,0,0,0,.4-1.6,3.16,3.16,0,0,0-1.2-2.7,4.56,4.56,0,0,0-2.9-.9,3.81,3.81,0,0,0-1.9.4,3.48,3.48,0,0,0-1.3,1.1,4,4,0,0,0-.8,1.6,5.82,5.82,0,0,0-.3,1.9h-2.7a9.43,9.43,0,0,1,.5-3,7.28,7.28,0,0,1,1.3-2.3,7.12,7.12,0,0,1,2.2-1.5,7.29,7.29,0,0,1,3-.5,7.66,7.66,0,0,1,2.7.4,7.56,7.56,0,0,1,2.2,1.1,5.75,5.75,0,0,1,1.5,1.9,5.92,5.92,0,0,1,.5,2.7,4.39,4.39,0,0,1-.9,2.7,5.48,5.48,0,0,1-2.2,1.8v.1a4.86,4.86,0,0,1,3.1,2,6.09,6.09,0,0,1,1,3.6,7.31,7.31,0,0,1-.6,3,6.2,6.2,0,0,1-1.7,2.2,6.61,6.61,0,0,1-2.5,1.3,10.32,10.32,0,0,1-3,.4,9.59,9.59,0,0,1-3.1-.5,7.22,7.22,0,0,1-2.4-1.4,5.13,5.13,0,0,1-1.5-2.3,7.77,7.77,0,0,1-.5-3.1H214a5.27,5.27,0,0,0,1.3,3.6,4.59,4.59,0,0,0,3.6,1.4,5.82,5.82,0,0,0,1.9-.3,5.07,5.07,0,0,0,1.6-.9,3.81,3.81,0,0,0,1.1-1.4,3.92,3.92,0,0,0,.4-1.8,4.06,4.06,0,0,0-.4-1.9,5,5,0,0,0-1-1.4,2.75,2.75,0,0,0-1.5-.8,10.79,10.79,0,0,0-1.9-.3,8.08,8.08,0,0,0-1.6.1V115c-.1.1,0,.1.1.1Zm-3.4,58.7v2.4h-3.1v5.3h-2.6v-5.3h-10v-2.6l10.3-14.8H211v15Zm-5.6-11.1L201,173.8h7.6Zm-44.9,36.7-1.2,6.5.1.1a3.47,3.47,0,0,1,1.9-1.2,6.56,6.56,0,0,1,2.3-.4,8.21,8.21,0,0,1,2.8.5,5.13,5.13,0,0,1,2.3,1.5,7.76,7.76,0,0,1,1.6,2.4,9,9,0,0,1,.1,6.2,6.08,6.08,0,0,1-1.5,2.4,7.39,7.39,0,0,1-2.5,1.7,9.15,9.15,0,0,1-3.5.6,8.63,8.63,0,0,1-2.8-.4,8.36,8.36,0,0,1-2.3-1.2,5.26,5.26,0,0,1-1.6-2,6.09,6.09,0,0,1-.6-2.8h2.7a4.19,4.19,0,0,0,.4,1.6,4.12,4.12,0,0,0,1,1.3,3.77,3.77,0,0,0,1.5.9,5.82,5.82,0,0,0,1.9.3,5.23,5.23,0,0,0,1.8-.3,4,4,0,0,0,1.5-1,4,4,0,0,0,1-1.7,6.05,6.05,0,0,0,.4-2.4,5.22,5.22,0,0,0-.4-2.1,4.88,4.88,0,0,0-1-1.6,6.45,6.45,0,0,0-1.6-1.1,4.64,4.64,0,0,0-2.1-.4,4.75,4.75,0,0,0-2.4.6,5.48,5.48,0,0,0-1.8,1.6l-2.3-.1,2.1-11.8h11.2v2.4h-9Zm-47.3,14.7a3.74,3.74,0,0,0-2.6-.9,4.65,4.65,0,0,0-2.8.8,4.74,4.74,0,0,0-1.6,2.1,11.46,11.46,0,0,0-.8,2.8c-.1,1-.2,1.9-.3,2.8l.1.1a5.89,5.89,0,0,1,2.4-2.3,6.71,6.71,0,0,1,3.3-.7,6.53,6.53,0,0,1,2.9.6,6,6,0,0,1,2.2,1.6,8.84,8.84,0,0,1,1.4,2.3,9.29,9.29,0,0,1,.5,2.9,8.24,8.24,0,0,1-.4,2.6,7,7,0,0,1-1.3,2.4,8.36,8.36,0,0,1-2.3,1.8,8,8,0,0,1-3.6.7,7.34,7.34,0,0,1-4.1-1,7.41,7.41,0,0,1-2.4-2.6,10.24,10.24,0,0,1-1.1-3.5,24,24,0,0,1-.3-3.7,21.54,21.54,0,0,1,.4-4.5,11.26,11.26,0,0,1,1.4-3.9,7.46,7.46,0,0,1,2.6-2.7,7.21,7.21,0,0,1,4-1,5.84,5.84,0,0,1,6.4,5.8h-2.7a4,4,0,0,0-1.3-2.5Zm-4.9,7.5a4.18,4.18,0,0,0-1.5,1.1,5.07,5.07,0,0,0-.9,1.6,6.82,6.82,0,0,0,0,4,4.17,4.17,0,0,0,.9,1.6,5.83,5.83,0,0,0,1.5,1.1,5.2,5.2,0,0,0,4,0,3.81,3.81,0,0,0,1.4-1.1,5.07,5.07,0,0,0,.9-1.6,5.82,5.82,0,0,0,.3-1.9,6.45,6.45,0,0,0-.3-2,6,6,0,0,0-.8-1.6,4.86,4.86,0,0,0-1.4-1.1,4,4,0,0,0-2-.4,4.45,4.45,0,0,0-2.1.3ZM64.9,203.4a39.76,39.76,0,0,0-2.7,5,35.75,35.75,0,0,0-1.9,5.5,27.4,27.4,0,0,0-.9,5.5h-3a26.18,26.18,0,0,1,.9-5.6,29.22,29.22,0,0,1,1.9-5.2,45.31,45.31,0,0,1,2.7-4.8,26.91,26.91,0,0,1,3.3-4.1H53.5V197H68.2v2.3a22.77,22.77,0,0,0-3.3,4.1ZM15.2,162.1a6.55,6.55,0,0,1,1.5-1.8,5.29,5.29,0,0,1,2.1-1.1,6.9,6.9,0,0,1,2.5-.4,10.23,10.23,0,0,1,3.2.5,5.39,5.39,0,0,1,2.1,1.3,6.15,6.15,0,0,1,1.2,1.9,5.22,5.22,0,0,1,.4,2.1,5.38,5.38,0,0,1-.8,2.8,4.85,4.85,0,0,1-2.3,1.9,4.86,4.86,0,0,1,3,2.1,6.91,6.91,0,0,1,1,3.6,6.53,6.53,0,0,1-.6,2.9,6,6,0,0,1-1.6,2.2,7,7,0,0,1-2.4,1.3,9.25,9.25,0,0,1-2.9.4,9.48,9.48,0,0,1-3-.4,6.18,6.18,0,0,1-2.4-1.3,6.75,6.75,0,0,1-2.2-5.2,6,6,0,0,1,1-3.5,6.43,6.43,0,0,1,2.9-2.2,4.75,4.75,0,0,1-2.3-1.9,4.9,4.9,0,0,1-.9-2.8,3.87,3.87,0,0,1,.5-2.4Zm2.9,16.2a5.13,5.13,0,0,0,3.5,1.2,5.82,5.82,0,0,0,1.9-.3,3.77,3.77,0,0,0,1.5-.9,7.1,7.1,0,0,0,1-1.4,3.43,3.43,0,0,0,.3-1.8,3.29,3.29,0,0,0-.4-1.7,7.1,7.1,0,0,0-1-1.4,3.77,3.77,0,0,0-1.5-.9,5.66,5.66,0,0,0-1.8-.3,5.82,5.82,0,0,0-1.9.3,3.77,3.77,0,0,0-1.5.9,3.59,3.59,0,0,0-1,1.4,4.78,4.78,0,0,0-.4,1.8,3.44,3.44,0,0,0,1.3,3.1Zm-.3-12a2.44,2.44,0,0,0,.9,1.1,5.39,5.39,0,0,0,1.3.7,7.77,7.77,0,0,0,1.6.2,3.62,3.62,0,0,0,2.7-1,3.39,3.39,0,0,0,1.1-2.7,3.17,3.17,0,0,0-1.1-2.6,4,4,0,0,0-2.7-.9,7.72,7.72,0,0,0-1.5.2,3.29,3.29,0,0,0-1.3.7,2.84,2.84,0,0,0-.8,1.1,3.34,3.34,0,0,0-.3,1.5A2.42,2.42,0,0,0,17.8,166.3ZM4.5,125.1a4.47,4.47,0,0,0,2.8.9,3.86,3.86,0,0,0,3.7-2.2,15.1,15.1,0,0,0,1.4-6.6l-.1-.1a5.41,5.41,0,0,1-2.2,2.3,5.53,5.53,0,0,1-3.1.8,7.45,7.45,0,0,1-3.1-.6A7.33,7.33,0,0,1,1.6,118a7.22,7.22,0,0,1-1.4-2.4,10.07,10.07,0,0,1-.5-3.1,9.43,9.43,0,0,1,.5-3,7.63,7.63,0,0,1,1.5-2.3,6.08,6.08,0,0,1,2.4-1.5,7.29,7.29,0,0,1,3-.5,9.43,9.43,0,0,1,3,.5,5.89,5.89,0,0,1,2.5,1.7,8.53,8.53,0,0,1,1.7,3.3,19.84,19.84,0,0,1,.6,5.3c0,3.9-.6,6.9-1.9,9a6.39,6.39,0,0,1-6,3.2,7.72,7.72,0,0,1-4.7-1.4,5.65,5.65,0,0,1-2.1-4.4H2.9A5.89,5.89,0,0,0,4.5,125.1Zm7.2-14.2a4.37,4.37,0,0,0-2.4-2.7,4.21,4.21,0,0,0-2-.4,4.64,4.64,0,0,0-2.1.4,4.07,4.07,0,0,0-1.4,1.2,5.31,5.31,0,0,0-.8,1.7,6.48,6.48,0,0,0-.2,2,5.66,5.66,0,0,0,.3,1.8,3.77,3.77,0,0,0,.9,1.5,7.55,7.55,0,0,0,1.4,1.1,3.42,3.42,0,0,0,1.8.4,4.06,4.06,0,0,0,1.9-.4,4.18,4.18,0,0,0,1.5-1.1,5.07,5.07,0,0,0,.9-1.6,5.82,5.82,0,0,0,.3-1.9A3.38,3.38,0,0,0,11.7,110.9ZM13.6,76V59.8H7.8V57.6a15,15,0,0,0,2.2-.2,4.79,4.79,0,0,0,2-.7,4.71,4.71,0,0,0,1.5-1.3,4.85,4.85,0,0,0,.8-2.1h2.1V76Zm8.3-13.7a10.9,10.9,0,0,1,.3-2.6,13.7,13.7,0,0,1,.7-2.4,6.9,6.9,0,0,1,1.3-2,7.71,7.71,0,0,1,2.1-1.4,7,7,0,0,1,3-.5,8.53,8.53,0,0,1,3,.5,6,6,0,0,1,2.1,1.4,5.33,5.33,0,0,1,1.3,2,10.88,10.88,0,0,1,.7,2.4,11.53,11.53,0,0,1,.3,2.6c0,.9.1,1.8.1,2.6a23.48,23.48,0,0,1-.1,2.6,20.61,20.61,0,0,1-.3,2.6,13.7,13.7,0,0,1-.7,2.4,8.58,8.58,0,0,1-1.3,2,6.43,6.43,0,0,1-2.1,1.4,7,7,0,0,1-3,.5,8.53,8.53,0,0,1-3-.5,6,6,0,0,1-2.1-1.4,5.33,5.33,0,0,1-1.3-2,10.88,10.88,0,0,1-.7-2.4,11.53,11.53,0,0,1-.3-2.6c0-.9-.1-1.8-.1-2.6A21.75,21.75,0,0,0,21.9,62.3Zm2.9,5.4a14.46,14.46,0,0,0,.5,3,7.22,7.22,0,0,0,1.4,2.4,3.34,3.34,0,0,0,2.7,1,3.47,3.47,0,0,0,2.7-1,5.27,5.27,0,0,0,1.4-2.4,9.43,9.43,0,0,0,.5-3c.1-1.1.1-2,.1-2.9V63a13.55,13.55,0,0,0-.2-2,14.16,14.16,0,0,0-.4-2,5.31,5.31,0,0,0-.8-1.7,4.89,4.89,0,0,0-1.3-1.2,4,4,0,0,0-2-.4,4.21,4.21,0,0,0-2,.4,3.74,3.74,0,0,0-1.3,1.2,4.47,4.47,0,0,0-.8,1.7,11.8,11.8,0,0,0-.4,2c-.1.7-.1,1.3-.2,2v1.8A27.15,27.15,0,0,1,24.8,67.7Z" transform="translate(0.3 0)"/><path class="cls-1" d="M53.5,38.2V21.9H47.6V19.7a15,15,0,0,0,2.2-.2,4.79,4.79,0,0,0,2-.7,4.71,4.71,0,0,0,1.5-1.3,4.85,4.85,0,0,0,.8-2.1h2.1V38.1H53.5Zm15.6,0V21.9H63.2V19.7a15,15,0,0,0,2.2-.2,4.79,4.79,0,0,0,2-.7,4.71,4.71,0,0,0,1.5-1.3,4.85,4.85,0,0,0,.8-2.1h2.1V38.1H69.1Z" transform="translate(0.3 0)"/></svg>